HIERARCHY
ROOT Hips
{
	OFFSET -14.64140 90.27770 -84.91600
	CHANNELS 6 Xposition Yposition Zposition Zrotation Xrotation Yrotation
	JOINT Spine
	{
		OFFSET 0.00000 13.20850 -1.60436
		CHANNELS 3 Zrotation Xrotation Yrotation
		JOINT Spine1
		{
			OFFSET 0.00000 8.61716 0.00000
			CHANNELS 3 Zrotation Xrotation Yrotation
			JOINT Spine2
			{
				OFFSET 0.00000 8.61717 0.00000
				CHANNELS 3 Zrotation Xrotation Yrotation
				JOINT Spine3
				{
					OFFSET 0.00000 8.61717 0.00000
					CHANNELS 3 Zrotation Xrotation Yrotation
					JOINT Neck
					{
						OFFSET 0.00000 11.07920 1.10792
						CHANNELS 3 Zrotation Xrotation Yrotation
						JOINT Neck1
						{
							OFFSET 0.00000 7.08032 0.00000
							CHANNELS 3 Zrotation Xrotation Yrotation
							JOINT Head
							{
								OFFSET 0.00000 7.08031 0.00000
								CHANNELS 3 Zrotation Xrotation Yrotation
								End site
								{
									OFFSET 0.00000 0.00000 0.00000
								}
							}
						}
					}
					JOINT RightShoulder
					{
						OFFSET -0.01000 7.91373 5.19711
						CHANNELS 3 Zrotation Xrotation Yrotation
						JOINT RightArm
						{
							OFFSET -18.41580 0.00000 0.00000
							CHANNELS 3 Zrotation Xrotation Yrotation
							JOINT RightForeArm
							{
								OFFSET -29.11090 0.00000 0.00000
								CHANNELS 3 Zrotation Xrotation Yrotation
								JOINT RightHand
								{
									OFFSET -24.65040 0.00000 0.00000
									CHANNELS 3 Zrotation Xrotation Yrotation
									JOINT RightHandThumb1
									{
										OFFSET -5.35114 -0.85590 3.97906
										CHANNELS 3 Zrotation Xrotation Yrotation
										JOINT RightHandThumb2
										{
											OFFSET -4.52789 0.00000 0.00000
											CHANNELS 3 Zrotation Xrotation Yrotation
											JOINT RightHandThumb3
											{
												OFFSET -2.46976 0.00000 0.00000
												CHANNELS 3 Zrotation Xrotation Yrotation
												End site
												{
													OFFSET 0.00000 0.00000 0.00000
												}
											}
										}
									}
									JOINT RightHandIndex1
									{
										OFFSET -14.26970 0.00000 2.88139
										CHANNELS 3 Zrotation Xrotation Yrotation
										JOINT RightHandIndex2
										{
											OFFSET -5.48836 0.00000 0.00000
											CHANNELS 3 Zrotation Xrotation Yrotation
											JOINT RightHandIndex3
											{
												OFFSET -3.01859 0.00000 0.00000
												CHANNELS 3 Zrotation Xrotation Yrotation
												End site
												{
													OFFSET 0.00000 0.00000 0.00000
												}
											}
										}
									}
									JOINT RightHandMiddle1
									{
										OFFSET -14.26970 0.00000 -0.09147
										CHANNELS 3 Zrotation Xrotation Yrotation
										JOINT RightHandMiddle2
										{
											OFFSET -6.17441 0.00000 0.00000
											CHANNELS 3 Zrotation Xrotation Yrotation
											JOINT RightHandMiddle3
											{
												OFFSET -3.56743 0.00000 0.00000
												CHANNELS 3 Zrotation Xrotation Yrotation
												End site
												{
													OFFSET 0.00000 0.00000 0.00000
												}
											}
										}
									}
									JOINT RightHandRing1
									{
										OFFSET -12.69180 0.00000 -3.06433
										CHANNELS 3 Zrotation Xrotation Yrotation
										JOINT RightHandRing2
										{
											OFFSET -5.62556 0.00000 0.00000
											CHANNELS 3 Zrotation Xrotation Yrotation
											JOINT RightHandRing3
											{
												OFFSET -3.56744 0.00000 0.00000
												CHANNELS 3 Zrotation Xrotation Yrotation
												End site
												{
													OFFSET 0.00000 0.00000 0.00000
												}
											}
										}
									}
									JOINT RightHandPinky1
									{
										OFFSET -11.11390 0.00000 -6.03719
										CHANNELS 3 Zrotation Xrotation Yrotation
										JOINT RightHandPinky2
										{
											OFFSET -4.52789 0.00000 0.00000
											CHANNELS 3 Zrotation Xrotation Yrotation
											JOINT RightHandPinky3
											{
												OFFSET -2.46976 0.00000 0.00000
												CHANNELS 3 Zrotation Xrotation Yrotation
												End site
												{
													OFFSET 0.00000 0.00000 0.00000
												}
											}
										}
									}
								}
							}
						}
					}
					JOINT LeftShoulder
					{
						OFFSET 0.01000 7.91373 5.19711
						CHANNELS 3 Zrotation Xrotation Yrotation
						JOINT LeftArm
						{
							OFFSET 18.41580 0.00000 0.00000
							CHANNELS 3 Zrotation Xrotation Yrotation
							JOINT LeftForeArm
							{
								OFFSET 29.11090 0.00000 0.00000
								CHANNELS 3 Zrotation Xrotation Yrotation
								JOINT LeftHand
								{
									OFFSET 24.65040 0.00000 0.00000
									CHANNELS 3 Zrotation Xrotation Yrotation
									JOINT LeftHandThumb1
									{
										OFFSET 5.35114 -0.85590 3.97906
										CHANNELS 3 Zrotation Xrotation Yrotation
										JOINT LeftHandThumb2
										{
											OFFSET 4.52789 0.00000 0.00000
											CHANNELS 3 Zrotation Xrotation Yrotation
											JOINT LeftHandThumb3
											{
												OFFSET 2.46977 0.00000 0.00000
												CHANNELS 3 Zrotation Xrotation Yrotation
												End site
												{
													OFFSET 0.00000 0.00000 0.00000
												}
											}
										}
									}
									JOINT LeftHandIndex1
									{
										OFFSET 14.26970 0.00000 2.88139
										CHANNELS 3 Zrotation Xrotation Yrotation
										JOINT LeftHandIndex2
										{
											OFFSET 5.48836 0.00000 0.00000
											CHANNELS 3 Zrotation Xrotation Yrotation
											JOINT LeftHandIndex3
											{
												OFFSET 3.01859 0.00000 0.00000
												CHANNELS 3 Zrotation Xrotation Yrotation
												End site
												{
													OFFSET 0.00000 0.00000 0.00000
												}
											}
										}
									}
									JOINT LeftHandMiddle1
									{
										OFFSET 14.26970 0.00000 -0.09147
										CHANNELS 3 Zrotation Xrotation Yrotation
										JOINT LeftHandMiddle2
										{
											OFFSET 6.17440 0.00000 0.00000
											CHANNELS 3 Zrotation Xrotation Yrotation
											JOINT LeftHandMiddle3
											{
												OFFSET 3.56744 0.00000 0.00000
												CHANNELS 3 Zrotation Xrotation Yrotation
												End site
												{
													OFFSET 0.00000 0.00000 0.00000
												}
											}
										}
									}
									JOINT LeftHandRing1
									{
										OFFSET 12.69180 0.00000 -3.06433
										CHANNELS 3 Zrotation Xrotation Yrotation
										JOINT LeftHandRing2
										{
											OFFSET 5.62556 0.00000 0.00000
											CHANNELS 3 Zrotation Xrotation Yrotation
											JOINT LeftHandRing3
											{
												OFFSET 3.56744 0.00000 0.00000
												CHANNELS 3 Zrotation Xrotation Yrotation
												End site
												{
													OFFSET 0.00000 0.00000 0.00000
												}
											}
										}
									}
									JOINT LeftHandPinky1
									{
										OFFSET 11.11390 0.00000 -6.03719
										CHANNELS 3 Zrotation Xrotation Yrotation
										JOINT LeftHandPinky2
										{
											OFFSET 4.52789 0.00000 0.00000
											CHANNELS 3 Zrotation Xrotation Yrotation
											JOINT LeftHandPinky3
											{
												OFFSET 2.46976 0.00000 0.00000
												CHANNELS 3 Zrotation Xrotation Yrotation
												End site
												{
													OFFSET 0.00000 0.00000 0.00000
												}
											}
										}
									}
								}
							}
						}
					}
					JOINT pCube4
					{
						OFFSET 0.00000 10.91090 1.10792
						CHANNELS 3 Zrotation Xrotation Yrotation
						End site
						{
							OFFSET 0.00000 0.00000 0.00000
						}
					}
				}
			}
		}
	}
	JOINT RightUpLeg
	{
		OFFSET -9.98441 0.00000 0.00000
		CHANNELS 3 Zrotation Xrotation Yrotation
		JOINT RightLeg
		{
			OFFSET 0.00000 -42.11790 0.00000
			CHANNELS 3 Zrotation Xrotation Yrotation
			JOINT RightFoot
			{
				OFFSET 0.00000 -45.00020 -0.00001
				CHANNELS 3 Zrotation Xrotation Yrotation
				JOINT RightForeFoot
				{
					OFFSET 0.00000 -3.74820 0.00000
					CHANNELS 3 Zrotation Xrotation Yrotation
					JOINT RightToeBase
					{
						OFFSET 0.00000 0.06325 14.43120
						CHANNELS 3 Zrotation Xrotation Yrotation
						End site
						{
							OFFSET 0.00000 0.00000 0.00000
						}
					}
				}
			}
		}
	}
	JOINT LeftUpLeg
	{
		OFFSET 9.98441 0.00000 0.00000
		CHANNELS 3 Zrotation Xrotation Yrotation
		JOINT LeftLeg
		{
			OFFSET 0.00000 -42.11800 0.00000
			CHANNELS 3 Zrotation Xrotation Yrotation
			JOINT LeftFoot
			{
				OFFSET 0.00000 -45.00070 0.00000
				CHANNELS 3 Zrotation Xrotation Yrotation
				JOINT LeftForeFoot
				{
					OFFSET 0.00000 -3.74824 0.00000
					CHANNELS 3 Zrotation Xrotation Yrotation
					JOINT LeftToeBase
					{
						OFFSET 0.00000 0.06325 14.43110
						CHANNELS 3 Zrotation Xrotation Yrotation
						End site
						{
							OFFSET 0.00000 0.00000 0.00000
						}
					}
				}
			}
		}
	}
}
MOTION
Frames: 4
Frame Time: 0.050000
-0.03023179206068471 0.017581907435798634 -0.0003093173415994227 -0.04208841263164443 -0.024520798553599142 0.029475060629395013 3.25180605721139 2.3650567328082177 -1.8140362112541444 -0.6032623016643518 3.6803658654306357 0.3211847525586423 -0.6194868854415018 -1.5579295078722484 1.0494027667832637 -0.5447296224591531 -0.4588211005465731 -0.24680249494748585 0.17067467792663915 13.4581812852515 -1.6319754284885262 0.36937538650009233 -0.0065013099286131 -4.264325640384454 0.9055212072318849 -15.88485243790523 -0.32446159843918004 -7.820657890754632 2.8541782909882887 -16.54073839943142 76.12747867579193 15.255616652392515 10.492823717406004 1.4951783778902386 0.807824051808514 89.49662539507295 21.169131496212263 -0.49489692540687535 -4.386180473404736 4.5150002551348685 -0.14091212874432557 -1.6234700325794278 -0.026942639939399996 -0.04648583982152943 -56.23552201978034 0.0299918242926581 0.010819033097429959 -56.2784112492038 -38.763504681044694 0.02312767051206734 -0.003382080880050099 -0.03455070001608985 -0.038005952149830526 0.021872123194872126 0.03320188899898793 0.007986422539744168 -0.04438949395279612 -36.72720922639517 0.028831331896755175 -0.046559002483675095 -0.01121799722006264 -0.01505863078038636 -0.021130554607916237 0.04009460945802593 -0.0014962305023290682 0.04155478864783397 -19.721479837528637 0.049715712718534893 0.037080748397954104 -0.03190655240815069 0.04685212644855972 -0.000986869368158589 0.02377139676801894 -0.03420089919064633 -0.011346909014759671 24.091848723662345 0.03210225898154689 0.020589348071805933 28.88616686414315 0.01406133013696282 -0.037873291696460656 28.838166686769647 -0.03227650975550354 -0.04664451547922097 8.65007195391335 2.1659653512757564 14.66786503927846 -74.52934743471108 24.71828786601503 -11.345762626517203 -16.574123916425876 3.268911068808696 -83.95494776021064 -23.378714903414444 -2.7069305449333942 1.6073067021629914 -0.44682029946062346 0.11637126207552484 -8.11468261162783 0.035622423894200554 -0.046385924654261 44.5668377928019 -0.021009169649994854 0.036262818697690116 44.539048133372134 12.452102240572147 0.00017011842128132436 -0.030547362032785727 -0.004716209257193206 -0.02446978199254547 0.020192872860886217 0.0051209069742762904 0.011867169235966984 0.009883478447104481 11.144324591024855 0.02990078177342351 0.00929384971522716 0.030124571288540077 -0.0018805852144461075 -0.005576238351729577 0.01715561056813766 -0.010462201344552651 -0.021758932508846276 4.736476412404688 0.001194711418144607 -0.0007415926163236986 -0.04741795348921771 0.04138190806986235 -0.03667196485915231 0.024205713572407583 0.04021156651025706 0.02707406830290323 -5.601083238923024 -0.0109163432218202 0.03148535893247112 -6.747773336221543 0.018168298917677538 -0.03648165540404032 -6.742462933092645 -0.02840958976038996 0.037462757563474385 -0.026898874209253687 -0.0218090975886857 -0.00048070482547155736 8.08652039535282 3.501777163115302 -19.24643033058405 0.017324240573974685 10.346567897606759 -0.0012481046489611035 -5.634318873653037 -15.70620928429513 3.2330175790378357 0.013765687705970019 0.011618556320173628 0.0499280737073497 -0.03026897888748073 4.6980854602380395 -0.03126157151567163 12.446914519298293 -8.193527861604528 6.834342032530231 -0.03085413690169592 46.39335913064853 -0.019989515125550576 -4.364694654042628 -14.765628175156596 -3.876468732734235 -0.04291613722274038 -0.010422298897479969 -0.04145998813974045 0.04993856443825616 -10.727256296977773 0.011734595382170698 
-0.047353789041104204 -0.016971391505794218 -0.01414683125723433 -0.027962586158672482 0.004429711968173353 -0.030654755157681547 3.7390372728812755 2.41595122097427 -1.888478096353896 -0.6306684346012092 3.6689060696134885 0.33837755989728374 -0.6806953059904667 -1.5263874692489576 1.0576801687252047 -0.493797935690173 -0.34336422148260737 -0.330114117090138 0.12399288013064987 13.72269606074247 -1.4655601214245637 0.4038069228907413 0.13395515112046236 -3.829935241709343 0.8752379976450181 -15.742570175465396 -0.3672752086504982 -8.362607112572206 2.9748041131106717 -16.773526673531432 76.7605201874424 17.07533891852336 9.534111457758476 -0.6098966660663608 0.34171972020086083 87.77414389299454 21.078831986489256 -0.5219632424835241 -4.669965708684005 4.577680618366725 -0.1507994587402632 -1.5873914531272373 0.03240493007930251 0.010797820299170187 -56.19514422041499 -0.04208934607579386 -0.024789137561758042 -56.24837454078206 -38.74706575676257 0.027346287134049702 -0.0406996859860718 0.027722942929074082 -0.04252264370236198 -0.01839571498118873 0.02035893779975264 -0.00983743581950374 -0.023348980429799823 -36.68966055735616 0.026337378536610962 -0.0447243323607376 0.015090229479157356 -0.03401977381509381 -0.03839393505284846 -0.04311528856414009 0.0032692917413694794 -0.011679902763610119 -19.769522486766355 -0.03248345242190507 -0.04319857639410723 0.026972094933879018 0.01678029579987201 0.010548268784702037 -0.0036961962988548785 -0.026020282147865743 -0.007725195732339475 24.09662406276372 -0.04239373087208787 0.00908510334624038 28.90425977708923 0.028907334378509304 -0.035903798457447816 28.887117407130976 -0.027079775357783598 -0.005964606858777904 9.21907505665195 2.238353526158992 14.805202669962144 -74.3156599171937 25.746820827467516 -11.659501681743555 -15.505056189281008 2.6426715581476072 -83.37831784610891 -23.27350264989935 -3.7125475439794458 2.34990554115215 -0.5189701964424701 0.09889511966968119 -8.128917567365162 -0.0025976322131693722 0.023905782322922935 44.614179103912534 0.04537527047419503 -0.0009196390225564909 44.59600915385364 12.466741933285096 0.006643344202618174 -0.03604270991951156 0.007018641595401092 -0.02142308566315779 0.005480756901303346 0.019954399982711018 -0.015867370063252905 -0.005945063283921423 11.143008530019857 0.011965026958538674 -0.011135072328423432 -0.0338282711310538 0.032438091899861556 0.0029536031959141243 -0.013378241439711029 -0.014288698845226974 -0.01890430600840025 4.819550459688334 0.007145042091401882 -0.014737709833793093 0.004270431348272242 -0.01720095024316283 -0.027805498643040275 0.021789156501998672 -0.03024718597868519 -0.028809878186940856 -5.584847004522767 -0.026494339820907657 -0.04769265817474642 -6.767606957287579 0.04705794083485192 0.009638294829318144 -6.713547732704657 0.03549548981054668 -0.021597961781687564 -0.010834533556649121 0.030556381045031986 0.02332604028937614 8.020141408160612 3.5106263954307555 -19.21041109015273 0.028305851805029383 10.372082480166709 0.03347330191007396 -5.628993631148934 -15.613590958146656 3.231345868770778 0.046752367832627935 0.004407381376519581 -0.015085231980582599 0.012757653369625418 4.7379900801484185 -0.01666807120287282 12.499609127626506 -8.190797272689318 6.87760022227044 -0.032883290127497654 46.3996025151968 0.02961278278939749 -4.313967440391193 -14.710419643755678 -3.840727192033981 -0.03510031034502741 0.04350975749191739 -0.007375901160886415 0.00037833475323967693 -10.730194831599839 -0.002202086931509779 
-0.01179526973022096 -0.043179632001539674 -0.005077768066981397 0.009267174209165742 -0.01902609390977126 -0.0148834062628612 4.06931721520065 2.362163676229846 -1.93622536464639 -0.6409658223796753 3.6622582109397617 0.3713306228681906 -0.6323346475209074 -1.5089492311543584 0.9087323905284955 -0.4392915424613021 -0.24556678786524222 -0.3002832154764288 0.033104919916435736 13.936584320097356 -1.3469264613978873 0.3812493316142167 0.2942632411855795 -3.251634279870052 0.7952345095663611 -15.472220455672065 -0.2687880470125949 -8.703843655475497 3.099299603923545 -16.999617378110315 77.23083663344042 18.83776913234405 8.912117241746275 -2.0597012442754865 0.04784265978133511 86.54781672783096 21.131242181344007 -0.537359772090625 -4.845067935717148 4.511556236364385 -0.10549267669656032 -1.5878204662110975 0.0023691124606639684 0.006625209079344002 -56.253262447807515 0.02055259111972631 0.009994237837921005 -56.25434300754705 -38.7429986532297 0.035306174071973215 -0.003287915282707824 -0.04938264713997689 0.007418201149164098 0.008440137464480349 -0.039544428905749635 -0.02526532473385459 -0.004990575778172983 -36.71839685277486 -0.03494174970950094 0.009929438323398593 -0.009600572713179668 -0.013229357218957833 0.00110004062344762 -0.017627791476396176 0.044581336719018635 -0.030449981320353307 -19.76289384121137 -0.0012797872289839708 0.044864198875960756 0.00321096928810711 -0.021654267810257356 -0.02553565063833337 0.015321979076937164 -0.025483380092960077 -0.04084068923127663 24.081498488638246 -0.016125817366836014 -0.03516682380031147 28.83111627778375 -0.04445205509854709 0.04353962434606813 28.863044918970285 0.007881332564656332 -0.04027135858749205 9.704665645263164 2.3731067129538155 14.890031276486534 -74.07354367216824 26.490800330938566 -12.237642277912178 -14.782018602790457 2.5108322211892165 -83.23719363185074 -23.43395613458494 -4.8437092705386515 3.1270527861329853 -0.4476606845307787 0.07212615851887086 -8.137304775930662 0.009654624458118165 0.025600867380654545 44.54563309393517 0.049688587869688036 0.040156823086081414 44.58424521921156 12.48109668572847 -0.03829389970666783 0.048522604953706264 0.010734873050187782 -0.028731212468270397 0.0050414413688649445 -0.01915202390635653 -0.03743085587115552 0.04163054597443866 11.101689627912519 -0.029525231080166962 -0.013313083595132344 -0.041020187537898385 0.048966807504719566 -0.04283109567655763 0.012002827372151227 0.013072003352694263 0.0007749681746998911 4.804394883251376 0.03134267844694068 -0.003661035209663243 -0.0071225638173313 -0.02224999839025457 -0.014563996175062162 0.046445852468140314 0.014865598833949372 0.011476514608576334 -5.566206068294174 -0.005182640843816801 0.00903986749522122 -6.769892955970526 0.010555398428241068 -0.01841327988252591 -6.735442176972206 -2.5450554790306803e-05 -0.0046062385715697225 0.03438409539166834 -0.024654562906371455 -0.029985677308873696 8.086961662114646 3.4902444764849596 -19.24367667092317 0.03882720220896957 10.405057546743535 0.01310250012249731 -5.661307299220352 -15.695840502364895 3.1936555486156575 -0.030131983503427297 -0.02275952068486225 -0.040198432108892734 -0.032049337964459794 4.707198882289548 -0.03579789187550021 12.476698516603951 -8.265774295342386 6.865397266197745 0.008118236313540783 46.364801518991456 0.04416254121310593 -4.351508393861494 -14.781691156378413 -3.8154532374228443 0.0415117564080686 -0.03709235849273539 -0.0237751130337748 0.001889232956526366 -10.75163152113518 -0.0005942904553252423 
-0.022880849711946722 0.03475378798942284 0.006643825269168027 -0.039021915125051654 0.006462265612373251 0.014746722911669062 4.1982375384675175 2.3253766080777 -2.014692654989849 -0.6266755760403389 3.6664530754220217 0.37234570125671507 -0.6101198849324874 -1.5111236710701235 0.8872583756097878 -0.49678803427678103 -0.24044937382269496 -0.3085756587374695 -0.09244932165099032 14.111630702883991 -1.1192383900287937 0.33000857988565235 0.515732824983 -2.6400006935340987 0.7297817360533755 -15.248173382594373 -0.18043830335601513 -8.982215312194603 3.134853244355926 -17.18410908760548 77.84140548896642 20.187384826232243 8.610858076205071 -3.226560572817325 0.13727869146561963 86.30400559099023 21.082992587497454 -0.5671146633455926 -5.179041149803604 4.485357564919068 -0.12605610758728925 -1.5462452698642626 -0.02092286927862743 0.042347316011394194 -56.21258656012663 -0.01293264812631689 0.032979342022548826 -56.192414393856495 -38.80606724014339 0.01142160980296178 0.029391636653401762 0.019926519762290276 0.026940891317046092 -0.03351155761744075 -0.04145175147723091 0.01881485050126953 -0.039059713810474864 -36.653997388312575 -0.0020282728836996528 -0.04503107440420083 0.0469757402304988 0.024720893444851153 0.02603875195779241 0.0021553330848462274 0.00019867307920291358 0.007513277292339129 -19.72837130225107 -0.020458411813871938 -0.046723655031579214 0.011135026503982211 -0.01628216781380862 0.04955709410815476 -0.033772562299643295 0.04050201946402764 0.04721562687888454 24.01607141440273 0.014725433453730695 -0.03952423371281411 28.895959852128488 -0.017886947171991185 0.030452353841850407 28.8360909206035 0.0011478168389793641 0.03135243553042361 10.093364967479323 2.434137686587218 15.083959630430616 -73.91915001365012 26.809847601191326 -12.836978617393143 -14.980695483864096 2.79425833584201 -83.97251020439295 -23.570724282373362 -5.80693372526063 3.888014125594298 -0.4875662034316773 0.02848334037754336 -8.08623625825824 -0.0010431131563144198 0.001976410855979184 44.545094175537834 0.003174305788583038 -0.036599137144671084 44.56781603802461 12.474220008749583 0.0009378169809288164 -0.04448720708363271 0.004270734837160522 0.03446568613246896 0.02302803051724404 -0.0024970612575454672 0.03334594583080187 -0.0365149723601242 11.084996282695718 0.025448611446055716 0.01093685173166631 -0.00965531581551871 0.034835147097648754 0.017105242266315792 0.02427337648898168 0.04378252845948547 0.00922294184553923 4.738060952506334 0.03825023273710242 -0.008455728378264228 -0.03820956733718023 -0.010845478819869662 -0.007838908316637859 -0.04083168873922842 0.004338088477359084 -0.004110682796776764 -5.59426071916383 0.0356459477372821 -0.017135532696369856 -6.770477930110368 0.0032332532494464207 0.03772021700616418 -6.707416155520732 7.951338126499715e-05 -0.0024520351633271604 -0.0048371039838067485 0.007196093865830903 -0.0072003957874501884 8.041912376627574 3.45254405664222 -19.19661723658707 0.01366923373891628 10.350539633477275 0.024772974160270942 -5.595411549666247 -15.636154335214478 3.1981464463177347 -0.04473570884044202 -0.04856006651911955 -0.04455301330749221 -0.03732326962006788 4.703262762479612 0.04024188388517406 12.496556277930749 -8.263666376146933 6.89477501545522 -0.023831230830053816 46.364814436109924 -0.0179428432713514 -4.281870180446503 -14.717058637284232 -3.7884354359017975 0.03635031113440321 -0.014996810468233495 -0.014025201738914863 -0.03903370121691309 -10.77337429511164 0.03605954011617723 
